<mxfile host="app.diagrams.net" modified="2021-06-16T14:42:33.757Z" agent="5.0 (Windows NT 10.0; Win64; x64) AppleWebKit/537.36 (KHTML, like Gecko) Chrome/91.0.4469.4 Safari/537.36" etag="EQnvfrJcopLqbroqOKy-" version="14.7.8" type="github">
  <diagram id="FnlzODHv59GmVD9aI4xC" name="Page-1">
    <mxGraphModel dx="2249" dy="1931" grid="1" gridSize="10" guides="1" tooltips="1" connect="1" arrows="1" fold="1" page="1" pageScale="1" pageWidth="827" pageHeight="1169" math="0" shadow="0">
      <root>
        <mxCell id="0" />
        <mxCell id="1" parent="0" />
        <mxCell id="q2s0pi1lTseh03P_kRHl-2" value="" style="shape=image;verticalLabelPosition=bottom;labelBackgroundColor=#ffffff;verticalAlign=top;aspect=fixed;imageAspect=0;image=data:image/png,iVBORw0KGgoAAAANSUhEUgAAA6MAAANwCAYAAADazLydAAAAAXNSR0IArs4c6QAAAARnQU1BAACxjwv8YQUAAG8pSURBVHhe7d0LsF11YS/+FagWbiUmtd5AqvFRGh5BKwdfLYPQwTZQ8IrTQsVLA94pYJnSCJLgVHrFKW0lIIj4GMBbMVKptI7eEYpc5AoqOkVzEEoA+VMLwQKpWmJQr6Wt+fNd7F9cbM9Jzmuvsx+fz8zO2nvttffZj/Xb+X3X77EqAAAAAAAAAAAAAAAAAAAAAAAAAAAAAAAAAAAAAAAAAAAAAAAAAAAAAAAAAAAAAAAAAAAAAAAAAAAAAAAAAAAAAAAAAAAAAAAAAAAAAAAAAAAAAAAAAADoAws6y54bGxtbs23btt9+8uovL1iw4OefWgsAAMB8ezKr/euTi//vyaz2yfHx8QueWttbrYTRAw888O+ffFOv7NwEqPbYY49q6dKl1bOe9azt1/faa6/6vn322ade/973vre67bbb6nUAALTjyWB62+233/6qzs2e6XkYTYvok4t1u+22W7Vu3bpqxYoV1aJFi566E2AHzjjjjOoLX/hCdfHFF1evec1rOmsBAJhrW7ZsqTZu3FitXbu2+tGPfpRVa3vdQrpLZ9kzna65dRA9+OCDBVEAAIA+k5yWvJbcFiXH9VLPw+iTfjn/pEUUAACA/rX//vt3rj2V43qp52G0TFakRRQAAKC/LV68uF62MelsGy2jAAAA8DTCKAAAAK0TRgEAAGidMAoAAEDrBi6MnnPOOfUFAACAwaVlFAAAgNYJowAAALSu78LoUUcdVV1zzTX18qCDDqovl156aefen1a2KbJtWXfyySfXF916AQAA+ktftoyef/751cUXX1xt2LChuuiii6orr7yyDqjdEliPPPLIertIEM22uZ3LCSecUI2Pj9f3AQAA0D/6MoyedNJJ1fLly+vrhx56aB0477zzzvp2kRbPpUuXVuedd15nTVV99rOfrc4+++zOraceOzY21rkFAABAv+jLMLpkyZLOtYldf/31dYvnFVdc0VnzlEcffXSnjwUAAGD+DcQERps3b35ayExLaS7NsaJFtgWGw/3339+5BgDAsOnbMaNFxoqmFXTlypWdNU9J99x0wc240SIBdaLHAoPn3e9+d/Xwww/X1xcsWFAvAQAYHn0ZRjPus8yIm3CZSYzKGNKm0k03291yyy3bA2p5bMaZ5rauuzBYEkT/5m/+pr7+3ve+tzrkkEPq6wAADI+eNzc8GQa3ZVlmvN2ZtHSeeOKJ1XHHHddZMztz/XxAbwmiAADzKw17MT4+3tO8OBBjRqcqp3ZpngImtzOpkSAKg0EQBQAYHUMVRk8//fTqxhtv3N5Nt5xzFOh/gigAwGjpu266wOgRRAEA+oduusBIEEQBAEZTay2jADsiiAIA9Acto8DIEEQBAEaPMaMAAABsp2UUAACAoSWMAgAA0DphFAAAgNYJowAAALROGAUAAKB1wigAAACtE0YBAABonTAKAABA64RRAAAAWieMAgAA0DphFAAAgNYJowAAALROGAUAAKB1wigAAACtE0YBAABonTAKAABA64RRAAAAWieMAgAA0DphFAAAgNYJowAAALROGAUAAKB1wigAAACtE0YBAABonTAKAABA64RRAAAAWieMAgAA0DphFAAAgNYJowAAALROGAUAAKB1wigAAACtE0YBAABonTAKAABA64RRAAAAWieMAgAA0DphFAAAgNYJowAAALROGAUAAKB1wigAAACtE0YBAABonTAKAABA64RRAAAAWieMAgAA0DphFAAAgNYJowAAALROGAUAAKB1CzrLnhkbG9uW5YYNG+rbw2L9+vXVTTfdVG3atKnaunVrZy0ATM0LX/jCat99963222+/evnyl7+8cw8AzK+DDjqoXo6Pj/c0LwqjM7Bq1apq48aNnVsAMHuHHXZYtWbNmmrPPffsrAGA+SGM9qm0iF5yySXVbrvtVq1bt65asWJFtWjRos69ADA1999/f3XvvfdW99xzT/W5z32u+s53vlM961nPqgPp0Ucf3dkKANonjPapE088sbrrrruq973vfdXBBx/cWQsAM7dly5b6AOcNN9xQ304YPeuss6o99tijvg0AbWorjJrAaJoyRjT233//egkAs5UeNn/+539enXPOOdUznvGM6tprr61+93d/t/r85z/f2QIAho8wOk1lsqLFixfXSwCYK294wxuqT3ziE9Wv/uqvVps3b65bRy+44ILqxz/+cWcLABgewigA9JEXvOAF1fvf//7q9NNPr2//9V//dfXGN76x+upXv1rfBoBhIYwCQB866aST6knzXvKSl1T/+I//WL3lLW+pPvShD3XuBYDBJ4wCQJ/KjO1XXnll9eY3v7m+/eEPf7j6H//jf9Qz8ALAoBNGAaDP/eEf/mH1gQ98oHrRi15U3XHHHdUJJ5xQfexjH+vcCwCDSRilJ04++eR6SuhrrrmmswaA2Xj1q19dT2507LHH1rff+973VqtXr64eeuih+jYADBphlKe55ZZb6hCZ0wtMVQJnHnPppZd21gDQC7vuumv19re/vTr//POr5z73udWXvvSl+hQwn/rUpzpbAMDgEEZ5mjvvvLNzbeomeswVV1xRbdiwoTruuOM6awCYK6997WvrVtIjjzyy+rd/+7fqvPPOq97xjndU//qv/9rZAgD6nzDaQ/fdd1/dYphL83ouRVoTczstkaVra7aNcrv7MVEeVy7NVsnJHldaMHN/uZ5LaQXNMhNlxPXXX1/fl5bS0lravGRd5LmybeSxuS+vv7yGZjfdPH/zObJNsbPXBsDTPfvZz65D6J/8yZ9Uu+++e/XZz362PgXMjTfe2NkCAPqbMNqSM844o3PtKUcddVTn2lNuv/32anx8vHPrqZDXvB0JZ5GwVkJjtx09rnj44YfrLl5FwmQJlxPJide7nXnmmZ1rU5PXVUJrkdfZDKQx3dcGMOqOOeaYupX0kEMOqb773e/W3Xj/4i/+onriiSc6WwBAfxJGW3LiiSfW3Vavvvrq+vajjz66vQU0cjv35/LII4/UQW3PPffcvm5sbKzeLsGshMOcg67cn5Oj574dPa5o/q1sG3nOHGHPc0a6fuX+Qw89tO5qW7bPpTxnXn+642bbKK9n+fLl9e0i25WAfNFFF21/nsj6qbw2ACb3i7/4i/WERuXA59/+7d/WraRf+cpX6tsA0I+E0ZaUsZPdQa0ogS5K+EowK91VS5jLfStXrqyvl26xpZV1Z48rSpiMpUuXdq5NLmGxPF/zOROap6Jsl3CZcFs0X0cx3dcGwE/klC8f//jHqwMPPLB68MEH61PCmFwOgH4ljLaktP41WwEnC6ZLliypl80WznJJqM3jcv3ss8+ut0v4THfXnT1uptIlt/mcpcVyqvbaa696mdfZbA0uobbcD8Ds7bPPPtWHP/zh7cMgcuBy1apV1T/8wz/UtwGgXwijLUmgS6tiGWvZbAntltbDBL5mC2cupWJRJi9qjq2MnT1uKkqgbU5gFM3nzPWm8pjmBEZNCc+lxfP444/f/jyR9ZOFcgBm7i1veUt1+eWXV7/8y79cbdy4sR5K8ZGPfKRzLwDMP2G0JRkrWSSAZXzmjlx33XU/1QJZQt9EMnYzpvu4bmlB7X58GUcaee3NrrSR8ao70xxbWuR2ed0AzL0c+Pvrv/7r+kBgvP/9769OO+206pvf/GZ9GwDm04LOsmeeDC7bskz3zmFQWvSm8n7SQlgqAMPy/gEYTDfffHN14YUX1uP4d91112rNmjXVscce27kXAH6iZJ7x8fGe5kUtowAwAg477LD6FDCve93rqv/8z/+s3v3ud9dzD/zLv/xLZwsAaJcwCgAj4ud+7ueqc889t3rXu95VLVy4sPrc5z5XnwKm+zzQANAGYbSHyqy3uugC0E+OPvroeizpr//6r1ff+973qnPOOaf60z/90+qHP/xhZwsA6D1hFABGUCa3yxjSjB3dZZddqk9/+tN1K+kXvvCFzhYA0FsmMJqmMpgXAGDUpHv3smXLqsMPP7w+fy0wnExgBABAX9m6dWt11113VZdccokwCsyaltFpms6pXQAAhsmWLVuqjRs3VmvXrq1+9KMfVatXrxZKYQhpGQUAoK8sWrSoOvjgg6t169bVt2+66aZ6CTATwigAANOy//7718tNmzbVS4CZEEYBAJiWxYsX18uMIQWYKWEUAACA1gmjAAAAtE4YBQAAoHXCKAAAAK0TRgEAAGidMAoAAEDrhFEAAABaJ4wCAADQOmEUAACA1gmjAAAAtE4YBQAAoHXCKAAAAK0TRgEAAGidMAoAAEDrhFEAAABat6Cz7JmxsbFtWW7YsKG+PegOOuigejks7wcAYCYGuU70xBNPVF/96lerTZs2VY8//nhnLW1ZunRpte+++1Z77713Zw39ppTv8fHxnuZFYXSahFEAgMGtE1177bXVBz/4wWrz5s2dNcyX3XbbrQ6lxx9/fPXa1762s5Z+IIz2KWEUAGAw60T33HNPdcIJJ9TXFy9eXK1cubJ69rOfXd+mPQ8++GB17733Vg888EBnTVX9zu/8TrV27dpq11137axhPgmjfUoYBQAYzDrRW9/61uqLX/xitWrVqmr16tWdtcyX73//+9VnPvOZ6sILL6xvv+hFL6rWrFlTvepVr6pvM3/aCqMmMAIAYCSkRS6OOeaYesn8etaznlV30b366qvr8PNP//RP1UUXXdS5l1EgjAIAMBIyYVE8//nPr5f0h+XLl1eXX355PYb0/vvvr7797W937mHYCaMAAIyUXXZRBe5HhsONHiURAACYd8Lo6BFGAQCAeSeMjh5hFAAAmHcHHHBAtccee9QTTT388MOdtQwzYRQAAOgLWkdHizAKAAD0BWF0tAijAABAXyhhdHx8vF4y3IRRAACgL+yzzz7Vc57znOqf//mf67GjDDdhFAAA6BtjY2P1Ulfd4begs+yZJ3embVkOy86kH3t/Wr9+fXXTTTdVmzZtqrZu3dpZS1ue97znVfvuu2992W+//apXv/rVnXug95T/+aX8j65BrBOpxw2Gv/mbv6ne/e53V0cccUT1Z3/2Z521tKnRXbqneVEYnSY/Yv1n1apV1caNGzu36Acvf/nLqzVr1lR77713Zw30hvLff5T/0SGM0ivf/OY3q2OPPbZ67nOfW332s5/trKVNwmif8iPWX9Iicskll1S77bZbtW7dumr//fevFi9e3LmXtjzwwAPVvffeW91zzz3VF7/4xe1jPFIhfeMb31hfh7mm/PcH5X90CaP00m/91m9Vmzdvrj7xiU84uDUP2gqjxowy0NI1L1IRPfjgg1VE58kLX/jCuivNGWecUf+n8du//dv1+gsuuKB6xzveUV+Huab89wflH+gFBw5GgzDKQMsYsVixYkW9ZP494xnPqP74j/+4evvb317fTksJ9ILy33+Uf2CuCKOjQRhloJXJShYtWlQv6R8Z6/HiF7+4+sEPflDdcccdnbUwd5T//qX8A7MljI4GYRTomTI1uxNXw+hR/oHZeP7zn1/P1r1ly5Z6TDrDSRgFeiazaoajmjB6lH9gtsrvyNe+9rV6yfARRoGeKS0jqYxu21ZPrA2MCOUfmC09LIafMAr0zHOe85xqn332qZ544gn/kcCIUf6B2TJudPg5z+g0KRT9xffR/y688MLq6quvrk499dTqlFNO6ayF2VP++5/yP9wGsQyW15x9ksFwzTXXVI899lj1+te/vtpzzz07a9uzcOHCeuzqK1/5yuqZz3xmZ+3wK2VlvMfnGRVGp0nlp7/4PvrfzTffXL3tbW+rv6vLL7+8sxZmT/nvf8r/cBvEMlheM0zXkiVLqtNOO606+uijO2uGWykrwmifUfnpL76P/pfTb/z6r/96tWDBgurLX/7ySB1VpLeU//6n/A+3QSyD5TWXiXEYLOX7a9P3vve96oYbbqhbZ+Oqq66q9ttvv/r6MCuftTDaZ1R++ovvYzCsWrWq2rhxY/WBD3ygevWrX91ZC7Oj/A8G5X94DWIZ9LvBTF1yySXV+vXrq0MOOaR673vf21k7vEpZ6XUYNYER0HOmZofRpfwDw+CYY46plw8++GC9ZG4Io0DPmZodRpfyDwyD5z//+fVy06ZN9ZK5IYwCPVe6etxxxx3VD3/4w/o6MBqUf2AY7LKL2NQLPlWg53bffffqwAMPrK/rqgejRfkHYDLCKNAKk0bA6FL+AZiIMAq0wrgxGF3KPwATEUaBVmRGzV133bW6++67qy1btnTWAqNA+QdgIsIo0IpURHXVg9Gk/AMwEWEUaI2uejC6lH8AugmjQGuc/B5Gl/IPQDdhFGhNTu+w2267Vffff3/17W9/u7MWGAXKPwDdFnSWPTM2NrYty2EZI2LMS38p3wdM1cKFC6tly5ZVhx9+eLVq1arOWgaR8s90Kf9zaxDrROpxzMYo7T/lvY6Pj/c0L2oZBUbK1q1bq7vuuqu65JJLVEZhxCj/AP1Fy+g0OaLWX3wfTFdOK7Fx48Zq7dq11Y9+9KNq9erVKqUDSvlnupT/udVPZfDjH/949cIXvrD6tV/7tc6aifndYDZGaf8p71XLKMAcWrRoUXXwwQdX69atq2/fdNNN9RIYfsr/8HrPe95TnX766dWb3vSm6vHHH++sBfqdMAqMpBUrVtTLTZs21UtgdOy///71UvkfHmkZ3WOPPapvfOMb1ete97p6CfQ/YRQYSWkhiYwhA0bL4sWL66XyPzz22Wef6jOf+Uy9TMtoWkgTUIH+JowCADDw0jKaAJogGum6mwvQv4RRAACGxtve9rb6EiWcGkcK/UkYBQBgqJRuusaRQn8TRgEAmLHLL7+8vjSVdfO5fqJxpEB/cZ7RaXJ+qv7i+2A27D+DzffHbNh/Zq98hkXzs2zeN9/rE0QPO+yw+nps27Yt507s3IKpK/tXc58bVuW9Os8oAAB969RTT60vTWXdfK9PED333HPr6z/7sz9bLxcs6HlbDDBFWkanaZSOiAwC3wezYf8ZbL4/ZsP+M3v9/hlmjOhZZ51VPfzww/XY0YTSMrGR752ZGKXfjfJetYwCAMA03HzzzXXraIJoxoxmMqNmV12gPwijAAAMhXTLzblF0wJaJi267LLLqqVLl3a2APqJMAoAwMAr40PLKV3K+UZzHehPwigAAAMt40PTCpruuWV8qFO5QP8TRgEAGGjGh8JgEkYBABh4xofC4BFGAQAYaGkNNT60v51zzjnVUUcd1bkFTxFGAQAYaFpD+9/mzZs71+AnhFEAAABaJ4wCAMAOpHvpQQcdVF8m6mpa7iuXSy+9tHPPU6655pp6/S233PK07dJ1NbJsrm/Kc2Xdfffdt9PXEd3PNdnrzXblucslf6PbySefPOk2uZ51eZ7J3kN5z+Pj49Wjjz76U/dP5TUwvIRRAACYQAlb6Qa8YcOG+nLxxRfX4TJK0DryyCO333/RRRdVV1555fag2XTmmWdu3+6kk06qrr/++vrxS5Ys2b4+EgC7HX/88fXfLtsl2HUHzdzOc5ZtyvPlb3TLdlG223PPPeu/0ZTnyyzFZZu85mzTHRjzfl/60pdu3y7Kazv00EPrdWNjY/XfaG6TIJrHXn311dvXr1+/vr6P0SCMAgDABC644II6QF1xxRWdNVW1fPny6rjjjquvr1u3rg5Z5513Xn07Er5K0OwObWeffXbnWlWdfvrp9TLPX65HHptWxG55bP52kdCbQFqCcYJdbifYNSXARu5vyutu/t0TTzyxXiZgR543z1ceH2X77sCYMF4+k8h7yGN31sp555131u+/+b6anyXDTxgFAIAuCVIJhUcccURnzdPl/gSutAh2K+u+/vWv18siLaDdDjzwwM61p+sOci972cs6156S0BtlYqCJgl3kdtbn/qbu11Jul+e78cYbJ3y+hNjuyYgme65HHnmkXk4m2+Uz7A7KjA5hFAAAJtEdtLpNdP9ee+3VuTZ3ukPhRCabVXimsw0nKKaLb/OSgJ6uu3MhraAJt+mqm+eeqHsyw00YBQCASezslCQT3b+zFsG5MFEX2MlC4kzDY4JiGcvZvFx33XWdLWYvXaDznOnqm6A70YRLDC9hFAAAukzWvbXY0f1lXXfX2tkoYzmL0gV45cqV9TJdgycap7mj7sQ7ku0nGrvaK2klnepYU4aHMAoAABNYu3ZtHciaM+MmFJZJgya7P91OE6ym0rV2qjITb5Gwdv7559etieVvZHKhhOPuGXHPOOOMen1zsqKpKNt3t1SmK213MJ6KMj60qbtbblqZJxqnyvASRgEAYAKZJCiz05ZTsORy1VVXbZ85dqL7Exoz0+10w9/OZDbd8jcSOBNEu2eeTffZdK0t2+WSCZJm2q023Wej+XwnnHDC9smTpqO81vI8sWbNmqc99+233z6nXYDpfws6y555skBsy7LszIOuFJ5heT+DzvfBbNh/Bpvvj9mw/8zeIH6Gg/iam+fi1GI4v0bpd6O81/Hx8Z7mRS2jME/SxSUFvXT1AUbHXJX/8jxOiwDAIBJGoc+lsprK5mTjMzLeojmeQ8iF4dGL8pzfi+b4tkiYzd+ZbNKQPKY5tmtn2wPAVAijADCgMm4r3cWmMzatewIRAJgvwigAAPSpHGzKQSfjRRlGwigjp3R7K5d0PUuXtVwvStfYssyldJPtfnwuTc3ua+naVrbpnhq9Ka+hbJcL0BvDVv7zd/KY5pjRsq5cyn3ltUWZ+bPZ9RYA2iaMMlJSkcyU6zn3V44y5pLzXqViNpGcwyuz12W7Mo15pnQvj80l58OaqEKXadcvvvji7dula9xEFdL8jUyTnm3yt0IFEebeKJT/BNH87eZ7LOtL60rklBC5fsUVV9S3AWA+CKOMlHXr1tXn32qOr8p5r1KhnMhEJ6zurrwdccQR9QmvU9lryvnAmo/NOcdSIe2eiCR/o1R0s30qiXk+YG6NQvn/+te/Xi9f+tKX1svI++1+HwDQD4RRRkYqi6kMNitpRU4IPZGJtm1K976c+2siL3vZyzrXnlIqnJs3b66XRVpmmsrt7sotMHOjUv7L4xO8AaDfCaOMnO7K33Skgtgci5XKalo2JjJXLRFTeb1Lly7tXAN2ZNDK/3Ql9KZVNsG7vM6pBNupfC6z+ewAYCLCKEzDBRdcUHfpK2OxjjvuuM49OzfTlo6iu0WlePjhhzvXgF6az/I/HXldeX3pGhwZQ1omYNqZRx55pHPt6RJuAWCuCaOMjNJSceONN9bLpskmMOmW4NfdCjlZSOyu/JWxXCtXrqyXU1W699155531sikV3FQSf+M3fqOzBpjIoJb/2chvR5kUaaLfj6bSrXii7cp78TsDwFwTRhkp6VKXyUGak4hMZ+bKVESbk5XkeSaryGbWziLbZ9bMTE4yk+57ed35O83TN8QZZ5xRt9RMp4UGRtWglv/pyGtqvr/S0tkc/5rfjO4QndeV15cxsM3HR95LJn4qB8YAYK4Io4yUzCqZCmkqhmU8VY72pxI22YyaTZlJM9ul21sem1aWycaMZdxW+RvZPn8jM3fORF53utylolieM5dMvHLdddd1tgJ2ZFDLfzRfc7lM1PU2B6byuso2CZL57WgGybVr19ahOvc3w3heX15399/Ke3QKGAB6YUFn2TNjY2Pbssz4lWGQ/5hjWN7PoJur7yMVsnTBm4tgl9bLhMZ0j+t1KwizozwPNuWf2VD+Z28QP0PfO7MxSvtPea/j4+M9zYtaRuFJaSXI+QKB0aP8A8D8EEYZKTkvYPe4y6OOOqpeNk+EDwwf5R8A+oswykjJmKhM3JGuB+WSSUl014Hhp/wDQH8xZnSaUnkJlZf+4PtgNuw/g833x2zYf2ZvED9D3zuzMUr7T3mvxowCAAAwdIRRAAAAWieMAgAA0DphFAAAgNYJowAAALROGAUAYKT8+Mc/7lyDqbHP9IYwCgDASFi2bFm9fOihh+olTFXZZ8o+xNwQRgEAGAkveMEL6uWnPvWpeglT9elPf7peln2IudHTk5jG2NjYtiyH5eSwTpbcX3wfzIb9Z7D5/pgN+8/sDeJneM8991QnnHBCfX3x4sXVypUrq2c/+9n1bZjI9773veqGG26oHnvssfr2xz72sWr//fevrw+zUr7Hx8d7mheF0Wnyn1d/8X0wG/afweb7YzbsP7M3qJ/htddeW33wgx+sNm/e3FkDO7dkyZLqtNNOq44++ujOmuFWyrcw2mf859VffB/Mhv1nsPn+mA37z+wN8mf4xBNPVLfddlv1rW99q9q6dWtnLfy0PfbYox4n+opXvKJ65jOf2Vk7/Er5Fkb7jP+8+ovvg9mw/ww23x+zYf+ZPZ8hDK9SvnsdRk1gBAAAQOuEUQAAAFonjAIAANA6YRQAAIDWCaMAAAC0ThgFAACgdcIoAAAArRNGAQAAaJ0wykBbuHBhvdyyZUu9hKkq+0zZhxg8yj8z9dhjj9VL5R9gfgmjDLRly5bVy40bN9ZLmKqyz5R9iMGj/DNTd999d71U/gHmlzDKQDv88MPr5dq1a6tbb71VCwk7lX0k+0r2mSj7EINH+We6lH+A/rKgs+yZsbGxbVlu2LChvj3oDjrooHo5LO9nGKxatUrLCDOyYsWKav369Z1bDCLln5lS/mdPnQiGVynf4+PjPc2LWkYZeKlMrF69ujrggAOM/2Gnso9kX8k+oyI6+JR/pkP5B+gvWkanyVFABon9FUaX8k+v2cdgeGkZBQAAYGgJozDEcrTaEWsYTco/AP1OGAUAAKB1wigAAACtE0ZhiGXweRmADowW5R+AfieMAgAA0DphFAAAgNYJozDEzKYJo0v5B6DfCaMAAAC0ThgFAACgdcIoDDGzacLoUv4B6HfCKAAAAK0TRgEAAGidMApDzGyaMLqUfwD6nTAKAABA64RRAAAAWieMwhAzmyaMLuUfgH4njAIAANA6YRQAAIDWCaMwxMymCaNL+Qeg3wmjAAAAtE4YBQAAoHXCKAwxs2nC6FL+Aeh3wigAAACtE0YBAABonTAKQ8xsmjC6lH8A+p0wOk0LFy6sl4899li9BAAYNaUeVOpFADMhjE7TsmXL6uXdd99dLwEARk2pB5V6EcBMCKPTdPjhh9fLtWvXVrfeeqsWUvqa2TRhdCn/9ELqPan/pB4UpV4EMBMLOsueGRsb25blMI1bWbVqVbVx48bOLQCA0bNixYpq/fr1nVvAMCkHM8fHx3uaF7WMzkB+eFevXl0dcMABxkoAACMj9Z7Uf1IPEkSB2dIyCgPs4x//ePWe97ynPnp1+eWXd9ZOzbnnnlt95jOfUTZhQCn/APSKllFgpw477LB6mQplKqZTlW1TEd1jjz06a4BBo/wDMOiEURhgS5curS677LL6elpIvva1r9XXdyTblFaUtI4Ag0n5B2DQCaMw4F7+8pdXp556an39rLPOqr7xjW/U1yNdLEo3i3j44YfrbR5//PHqTW960/aWFWAwKf8ADDJhFIbAKaecUlcsU8lMZXMiuS8tIVlm2zwGGHzKPwCDShiFIZGK5j777FO3fkxU0Uw3vowtS9e+bGu8GAwP5R+AQSSMwpBI5fLCCy+sr5cJTbIs18uEJdlGRRSGi/IPwCASRmGITDShSfeEJWk9AYaP8g/AoHGeURhCqXymUlpaQDJOLBOWvO1tb6tvA8NL+QdgtpxnFJix5oQmJiyB0aL8AzAotIwyFNavX1/ddNNN1aZNm6qtW7d21tKW5z3vedW+++5bX/bbb7/q1a9+dece6D3lf34p/wDDp62WUWGUgbdq1apq48aNnVv0g5z7cM2aNdXee+/dWQO9ofz3H+UfYPAJozAFaRG55JJLqt12261at25dtWLFimrRokWde2nLAw88UN17773VPffcU33xi1+sHnzwwXp9KqRvfOMb6+sw15T//qD8AwwfYRSm4MQTT6zuuuuu6n3ve1918MEHd9Yyn/793/+9uuCCC6pPfvKT9e0jjjii+rM/+7P6Oswl5b//KP8Aw8EERjAFGSMWaRGhPzzjGc+o/viP/7h6+9vfXt9OSwn0gvLff5R/AKZDGGWglclKdM3rP8cee2z14he/uPrBD35Q3XHHHZ21MHeU//6l/AMwFcIo0DNjY2P1cnx8vF4Co0P5B2BnhFGgZzKrZhgzDqNH+QdgZ4RRoGdKy0gqo9u21XOZASNC+QdgZ4RRoGee85znVPvss0/1xBNP6KoHI0b5B2BnhFGgp5qtI8BoUf4B2BFhFOipMm7sa1/7Wr0ERofyD8COCKNATzVn1Ex3PWB0KP8A7IgwCvTUwoULqxUrVtQTmBg3BqNF+QdgR4RRoOd01YPRpfwDMBlhFOi5Zlc9YLQo/wBMRhgFeu6ggw6ql3fccUf1wx/+sL4OjAblH4DJCKNAz+2+++7VgQceWF/XVQ9Gi/IPwGSEUaAVpXXE+QZh9Cj/AExEGAVaYdwYjC7lH4CJCKNAKzKj5q677lrdfffd1ZYtWzprgVGg/AMwEWEUaEUqorrqwWhS/gGYiDAKtEZXPRhdyj8A3YRRoDVOfg+jS/kHoJswCrQmp3fYbbfdqvvvv7/69re/3VkLjALlH4BuCzrLnhkbG9uWpTEi9EIZgwRTtXDhwmrZsmXV4YcfXq1ataqzlkGk/DNdyj/A1JT/Y8fHx3uaF7WMAiNl69at1V133VVdcsklKqMwYpR/gP6iZZSBZnZGpiunldi4cWO1du3a6kc/+lG1evVqldIBpfwzXco/wNRoGQXogUWLFlUHH3xwtW7duvr2TTfdVC+B4af8A/QXYRQYSStWrKiXmzZtqpfA6Nh///3rpfIPML+EUWAkpYUkMoYMGC2LFy+ul8o/wPwSRgEAAGidMAoAAEDrhFEAAABaJ4wCAADQOmEUAACA1gmjAAAAtE4YBQAAoHXCKAAAAK0TRgEAAGidMAoAAEDrhFEAAABaJ4wCAADQOmEUAACA1gmjAAAAtE4YBQAAoHXCKAAAAK0TRgEAAGidMAoAAEDrhFEAAABaJ4wCAADQOmEUAACA1gmjAAAAtE4YBQAAoHXCKAAAAK0TRgEAAGidMAoAAEDrhFGYJ7fcckt10EEHVddcc01nDTAq5qr8l+e59NJLO2sAYHAIozAgjjrqqLrSWS7dldhURrMeGB69OGiV35Jzzjmnc+vpmr8xueTvN+VxeTwAzAVhFPrcfffdV1cKjzjiiGrDhg3bLzfeeGN9X7F58+bONWBUHHroofXvwemnn95Zs3OPPvpo59pPlNB79tlnP+13Zt26dZ0tnuJ3BoC5JIxCn1u/fn215557/lRl84orrqiWL1/euQUwc1dddVU1NjZWHXfccZ01T7nuuus61wBg7gmjjJzSAlAuJ598ct31LNeLdInL7bLMpXRX6358Lk2lu2xaLZtda3fUtS2voWyXS9POWiJKy+n1119f3y7P0Ww1La+peemWdfkcymtpduNrfg65GJ/GoBq08r8zpfw3y2RZVy7lvvLaIr8XuZ6/HQ8//HC9nEx53+Pj43XLannupu73UZ67aL7W8tk0X3f5HsqlfOYADC9hlJGSys2ZZ55ZnXTSSdu7oS1ZsmR7kOt2/vnnV1dffXW9XbrDRVoQymNzSatld6Urjj/++Oriiy/evl0qcBNVSPM3TjjhhHqb/K1oPt9LX/rS+rHNcNiU1tE89sgjj6xvl79XWk3zXFdeeeX295FLWkBS2WsG1sjnkL+Xbc4777x6XSqLeY0XXXRRvT7Pk+drViJhEAxi+Z+ulOn87eZ7LOvTu6Lczu9FrqeHRRx44IF10JysXJfuwPntyHtuPnfk9ySBtqzPJc830XvO78eJJ55Yb1N6fOQ953soj0134XxXAinAcBNGGSkZ/5TKVLPLa0JXKlcTSYWuuytsqbwVGcuZSld3sEtlqvnYhLlUSNPa0pS/USq62T6VxDxfkdea11xaMqZTOcvfynPlbzdfS3kP6QLcNFF34FQcJ3qNWQ+DZBDL/3R9/etfr5c5qFTk/Xa/j27lc0i5nuhA1Y6UA2XdXXone8/5DprdgfObVn6nityf15PwD8DwEkYZGalcpWLUrKQVaRWYyETbNqUSNlkoe9nLXta59pRS4ezudpuWmaZyu1kZTAW4VNTSWjDVyuKdd95ZL8vfbkqF8Pbbb+/cekr351Aqkd2fQ7k9nQorzKdBLv/TUR7fPfHQVCRMJkRHWlfzOzMV+R3J70m38p7L71DR/blmMrbo/p3K97Kz7sMADDZhlJHTXfmbjlQQU0Erl1Sq0rIxkZ21RExXKmrpvlZCaSqLU6mwTtbqM53PoQTgcknXwnjkkUfqJQyKQS3/U5XfiQTKBO/yOqcTbNMiWbrJRh4/FZN9rpP9/kykvN5ySW+QvA8AhpcwCtNwwQUX1JWrMq6pe+bJHZlpS0e3VDbL2LLubrYTmawyN51TNDTHmzYv3S0ZMMz6ofxPRQmUzQNX0x17mecoj5/K+PDJfk+mGiabn2v3BYDhJYwyMkpLRekS1jTZBCbd0mVs6dKlnVtPmawS1l35K2O5Vq5cWS9nY6qtLqU73EQV0YzRmqx7YlG6GpbXDoNqmMr/VDUPXHV3lZ2Kvfbaq3Ntx/I7MtE41/IZ7Ky7c+5PaG0zsAPQH4RRRkq61KXS1JxQYzozV6YimseXSlOeZ7KKbLq2Ftk+XVszOcl0u+/l9XVPAFJaKn7jN36jXkbpJtes0KV1I2O58lqa68t7LjPmTiavNa85r71Zuc7rmWx2X+hXg1j+pyuvqfn+Slf6ZiBMK2R3iM6st90BuvS8aAbo/M50t3aW35HumXPzGXRPVjSR3J/XlBbcpvzGNN8LAMNHGGWkZFbJVEhTMSzjkhLoUklMZWhnMpFQqTTlsWllmWzMWMZclb+R7fM3dhb+JpK/mb9TniuXTJqS7mvNbrJ5b83XVirMeXz+dlmfS0y1+1tec95jc9xoWllm8l5gPg1i+S+ar7lcJurxkGDX/L1IuU132+Zvxdq1a+tQnftLGM/kRZn0qDwul0xMlN+JZoAu76FsU5Tfk+bj89nkM5uK/P0E1+bjE6B3FmQBGGwLOsueefI/l21ZGvdBL6TCErPdv1IhSxe87lMTzERaLRMW0z2u160gzM5c7T/MD+Wf2VD+ASZXfiPHx8d7mhe1jMKT0kqQ8wUCo0f5B4D5IYwyUjIGqXtmyDLOqXkifGD4KP8A0F+EUUZKxjtl4o50PSiXTEqimxYMP+UfAPqLMaMMtFQmw/7FTNh/Bpvvj9mw/wBMrvxGGjMKAADA0BFGAQAAaJ0wCgAAQOuEUQAAAFonjAIAANA6YRQAAIDWCaMAAAC0ThgFAACgdcIoAAAArRNGAQAAaJ0wCgAAQOuEUQAAAFonjAIAANA6YRQAAIDWCaMAAAC0ThgFAACgdcIoAAAArRNGAQAAaJ0wCgAAQOuEUQAAAFonjDLQFi5cWC+3bNlSL2Gqyj5T9iEGj/LPTD322GP1UvkHmF/CKANt2bJl9XLjxo31Eqaq7DNlH2LwKP/M1N13310vlX+A+SWMMtAOP/zwerl27drq1ltv1ULCTmUfyb6SfSbKPsTgUf6ZLuUfoL8s6Cx7ZmxsbFuWGzZsqG/DXFu1apWWEWZkxYoV1fr16zu3GETKPzOl/ANM7qCDDqqX4+PjPc2LwihDIRWKm266qdq0aVO1devWzlr4aRkjlq55aRFJkGHwjXL537ZtW7VgQc//Kx8ayj/A1AijwIx9/OMfr97znvdUe+yxR3XIIYdUf/d3f1fts88+9fr4xje+Ub3pTW+qrx922GH1tkB/e/zxx+syXaQMpyxHynbKeFx++eX18tBDD62WLl36tMcAwFS0FUaNGYUhlErq6173uurCCy+s/vRP/7SuqF522WWde6vqlltuqQ444IDOrZ9IxfZtb3tbXZktlVxgfqX8ljL9ta99rbP2qYpCAmg5sFSccsop9SX3CaIA9DMtozBiHn744brymlaWLI8++ujtLSqlRTVS8T333HPr6wmm2f7lL395fRuYeyln9913X/3/ZXos5BIpkymbCZYJmd3hEwDmmpZRYFpSWU2A3FmLZrrtlUpuKr25XaSSm4rvqaeeWofUIi2pWZcfps985jOdtcBM5eBOWjmb5TXlLAeAUsZuvvnmztqqOv744+vynfWCKADDZNfOsmf22muvumklFVmgN1JJff/7319997vfrV7ykpdsb+mcTGl1Sbh80YteVK9Lpfhnf/Zn68dmfTOkpjX1kUceqZ8/gfeFL3xhvb5UnLM+6/J4YMcSQt/85jdXn/zkJ+uys3Llynp9JiP6/ve/X9/OwaBf+IVfqNenRTTXlS8A2lLmH3iy/veu+kqP6KYLQyCV2xzwSatJxnxOV1pp8vgE0gTMBM6JZLso49CyXYJqpEW1tLimVSeB1ng1RlnKxrXXXluXh+XLl2/v9p5ylLKSAz9ZpustAPSTtrrpCqMwJFLxbbZmTkcemyNgaeVMgCzLncnjUtFO+U5Fuzuk5vWUsW4wzHIgJ70HUhbKAaESOiNlIeWqyH3KBQD9ShgFdqi0usxlq0qpLJeW0ZkE3FSyE0wTUlPZLmPfsj6V9NINuFTSYdBkX07ZKN3hm6Ezyr4fORiTVtFsK3wCMCiEUWBSqfyWbrXN7rFzLaEyZTeBd7KuuzuS11cq7KUrcWRdKumR95LtzNTLIMgBlZSJ7Lc5eFMO1qSL/F577VXv25lwSPAEYJAJo31o/fr11U033VRt2rSp2rp1a2ctAMMmkwktWLDj/yKnsk23TPS17777Vvvtt1+9dBAGgH4kjPaZVatWVRs3buzcAoDZS6+GNWvWVHvuuWdnDQDMP2G0j6RF9JJLLql22223at26ddWKFSuqRYsWde6F9sxkDOdcy0RHGRP3zne+c3sX3LnSfH/pIlzGsKZ7bxkbmy69Mdd/m9GRLralG23258suu6y+ni645Tye6Vb+5H/A+T+s3tfmqtvt/fffX917773VPffcU33uc5+rvvOd71TPetaz6kDaPLcvAMyntsLoLp0lO5CuuZEgevDBBwuizIuMDU1FuYSx+ZIgmteQ15IK+1xqBu0Eg/KeEwiKhIesS4vSXP99hlf2lRzQyH5z9dVXd9ZW9eRCCZr5T7cZONN9NttnOZfjP/fee+86dCZ8fuITn6jPKZpzi+bgTi4JygAwKoTRKcgY0UiLKMyHTPZTJvzJ6SPmU15HwmAq771snUwASHBIKG2Oq0tgzX2ptDfDa1pSm62pjKbsFwmeOWiRS5HAVyYeKjM8R/ax7DPZdiaTdM1GDmz++Z//eXXOOedUz3jGM+rZsX/3d3+3+vznP9/ZAgCGm266U1CaqYdhEiYGU1oi01U1YSuV536Tyn1Cal5fW92Im116EzASJEqrUnOW07y2fvzMmBv5zpunWUkQLbM256BFCZ4lhJbTrPSbBx98sLrggguqr3zlK/XtN77xjfWBmF12ccwYgPYZM9pHhFH6QSrTc9ldcC41uw9n/N18zBCaEHLffffVl4TiyGdWgmjKcbr99utnyPTkuy2nN2qGzkj32gTOQw89dOBmq73yyiurSy+9tL7+S7/0S3V33le84hX1bQBoS1th1CFX6FOpZDe7GfZziEoATctkXuN8tToldCQUlyAaCSzlxzTdNMtnmM82rU75fEuIpn+l1b37XLf5LssBmrR25nqR77W7e/egOOmkk+pJ817ykpdU//iP/1i95S1vqT70oQ917gWA4aJldAq0jNK2BKS0+qSCnUp1QtYgKOEg0nUyE8Xk9feDfKYlKKcbbwmtaTlNi2nkNecyiCFmGGT/yfeUWWyPP/747ftSQmi+l2i2vGddtinbDZv3v//91Uc+8pH6+q/8yq/UraQ5PykA9JqWURhhmcgkFfNUwputQf2uGQoS8NKilbDXD7PeNlts85nm9SXwlx/bSFfPsq5MGEXvZB/Ppchnn0sCZ7PbbQ5o5OBBvpPmgYIymdWw+sM//MPqAx/4QPWiF72ouuOOO6oTTjih+tjHPta5FwAGnzDah1IRziVj3xhNqXynUp7loFa2060y+3EzbPSThOS8xmarcz7rElqbn3vp9pkwVFromLl8jvnc8x00Zz/O7ewzuS/LIutzAGG+uoDPp1e/+tX1KWCOPfbY+vZ73/veavXq1dVDDz1U3waAQSaMQp9IaGsGnQSlQW71SXBIiEsLZGnNyntsjoPtNwk8CUpplUsAKtJ1NOvyXpoHibK+X8N2P8j+nM8z+3IzdGb8bj677N+5XmS7EvzbmpV5EOy6667V29/+9ur888+vnvvc51Zf+tKX6lPAfOpTn+psAQCDyZjRKShH6I0ZpVcSaNINMftYuigOawtQgkZ5fwkezcDXz/L9JEzl+2kGpYTXBK7cvvDCC0ey5a7IZ1QCZvkcdjQ2N9sPezfbXvje975XnwLm+uuvr28fccQR9T758z//8/VtAJgLJf8YMzqATj755PoLLJfcLnJy86zL1P3lerldlHW66Y6OVNLLGLlhrpznVBsJIAktg9TdNd9Juo7me2q22O211171sgSrIuEg2/bDWNk2ZN9NME/X8mbLdwJoLgmkOfhQ5LNKYBVEp+/Zz352dd5551V/8id/Uu2+++7VZz/72fqcpDfeeGNnCwAYHMJoD3RXsjMzZDNsRioQ5ch25Nxy11xzTecWoyYzh6aCnta1ZqgZNgkgpbUs4aUY1NCW4JXW0nxvJViVLr3pnnrWWWfV64pBD6f5bUvILuM9ixw8i3y/zdbhfCbZflTHe/bSMcccU48lPeSQQ6rvfve7dTfev/iLv6ieeOKJzhYA0P+E0R647rrr6gpqLhdddFG9bvPmzfWyqWxz5JFH1rfvvPPOesnoKSFtVE4pknBSwluCW1rUEnAGqbW0qfm95btMAMt7agbuhNSsS3DL/f0urzeBuvla851lXe6LtAhH1mf/LeNDaccv/uIv1hManXHGGfXtv/3bv61bSb/yla/UtwGg3wmjPdDspnvmmWfW67rDaMb5FEuWLOlcY5Sk4l7G042yZz3rWXVrcAJOzks6DNJqmFCW7rpNpXWwhLhIGM92aWWdrzCe19PdapvgnCCa/bS8roTO7LNZl/BZDihE8zrtyilf8p0ceOCB1YMPPlifEqa7Nw4A9CNhdI6lApBuuWeffXbd6pnlRJqtoOW6UDo6UpFP+MiyjBUdVWlVzOeQVsRmq1ppfRsWCaIJDPldaL7PjA3PPpCJnZphPO+/jc8gQTiffcJn8+9lXUJ1d6DO+rwX4bO/5Dv58Ic/vH2Oggz9WLVqVfUP//AP9W0A6EfCaI9kCv60jGY5kQTW0nqa67Fy5cp6yfBLAElrVPfYu1GWFrcScNISl3CUdYPadXdHmuOCM14477P73JoJpmX/mIsDFmn5TEtnnrMZOstrSZhpttiWSZiy/TCPYx42b3nLW+oDXb/8y79cbdy4sTrppJOqj3zkI517AaC/CKNz7PTTT+9ce0oqAhPJ+rGxsc6tqh5bunz58s4thl2p6He3OvGUBNAEo7SYDntX5gTwtDZmX2gemMj6XJoBMfJ5ZN/ZUUBN2EwrbLPr7S233FKvy325XiQM53POfaMyZnnY5aDGX//1X9ffbbz//e+vTjvttOqb3/xmfRsA+oXzjE5Baa2Yi/eQ07lkFt2E0e7gynArAauMG2TH8lkldB199NEjHZISKJvdYhNcS2tx85y0CZn5nNIqlvWRbUuYLyG0nF6nPB/DLQctMtvzI488Uu26667VmjVrqmOPPbZzLwBMrOSfXp9nVBidAmGU2UqwSrfThIhmgGDqymeY8jjKLcoJp+nm/Xd/93fVj3/843qfymeS36d8Rr/0S79UT5iWYJqW1gRSRtsPfvCD6oILLqhbwOO1r31tXYb+63/9r/VtAOjWVhjVTRdakBa+tEylRcr4u5lJ2CrdT0cpYCVgpnUrLZ65JGRmHOeHPvSh+vPI/Vu2bNnezf9nfuZn6hbQ7HNlAqI8rnu2XEbHz/3cz9Ut5O9617uqhQsXVp/73OfqU8A0z3UNAPNBy+gUzGXLKKMpoSHhIBfdI2cun2Mq1Om6m0A2jPIe81tT3l/CZhlLmn2nOVa0uwtv5PGl5T3bllbkrEuQjzxntjNGdPSk1TytpJ///Ofr28ccc0y9j/yX//Jf6tsAEG21jAqjUyCMQv9KRTpldBDDaUJhCZK5nhbfLCNBstyXVq20qM9kvGeeJ916cz7X8hk1Q2q6PjdPNcNoyARHOTiWrt6/+Iu/WJ111lnVa17zms69AIw6YbSPlC8DAGDUpHv3smXLqsMPP7w+fy0w/NoKo8aMQo9t21YfjwGAgbR169bqrrvuqi655BJhFJhTWkanQDddpivd38o5MpvnjqR3ml1eMzYy19ue6CjjMJvdaPP9lxlM0y22dJMtkwl1j/ecb/kM83rzW5fXWybbyvV07c3rfec737l9TCowGjJJ2saNG6u1a9dWP/rRj6rVq1cLpTDktIzCAEvlPef2E0TbU0JdTnWS2WMTBBP+yhjMXkqAS/DN3yvhM/L958e8nJKmyMRBufRTEI28nryHHEyZaNbnhO3may6TcpmpF4bbokWLqoMPPrhat25dffumm26qlwCzJYzCHElFPZfCTKXzIyGqTMiTSXvmUr7fBN08f5mZNhLQEoKz/P73v99Z+1QYLdsPcmtiAmdaS3OO3BJSE/LzGeRSzqFbCKcwnPbff/96uWnTpnoJMFu66U6BbrrsTEJKKuSlgq4b4/zLd5GAVL6LEpCmepAgjy9lvrRwN2ehTfDM7ej+W6OizNSb956W6EhZKN2R01pc1gPDQZ0IRoNuujBAcu7LBJJUvifq3kj7EhZLOMx3c9FFF9UHDNLKl9vdmi17CVT5LhM8m2EqP8ylG2t3y+goHoBISE+rb3fgbH7uRT7TfJ5pKW5+1gDA6BJGYQ5kfGgJLwkm9Jd8J0cffXR9vTmmM8rY0tKaFwlTeUwJn0XW5TtOCHPQYWL57BLU02rSPH9pbqclNV19E+aLBNMEVQBg9AijMEPNVp8Ek4QaQbR/LV++vPrt3/7t6gUveMH27ylB6LbbbtsehpotdgmtZbwnM9NsLS5ddhPuS7fnSEAt60q3ZwBgNAijMAMJoqlYCyr9Kd9P9yQ66Ur9yU9+sj5XXrkvLXSbN2+ujjzyyDp8au3snRwAKL0HsmzKfd1dp3MgIN9PAmr3fQDAcBBGYQZKJblM3kL/KGEn40ObXXKPP/74ugUuBxFK6CwtpNdff72uovMk30npvlsmS4isS3fffJ/NiVJ8TwAwPIRRmIGEmQSZjBXVmjY/0rpZun02JxMq30eCTQmbke1KUC3b5PF5bIJrmWU3rXAOMLSv+7yr6XWQ7yvfYzOknnXWWfXt3CeYAsBgc2qXKSgVIdOY05SK8CjOoNq2hMN81mmFTogs4w3TjTOtaZF1zUlx8phmsJmO8rwJqt3dSZlf+V5LS2m+37R8l++5tHg/+X+Oc/xCD6kTwWgoZd2pXaBPpAWtOQ5REO2NBI5cinTXLKdkaXa7PfTQQ+v1+V4SRJpmGkSj/O08Z/PvMf/yveZgQSrB6ZVQvuccrMh3lYMIGRtc5LvUegoA/UsYhSlIRTeV4IQfXTh7I6EhXWnTGtkMl2n1TPDPfc1ZWLMuXTmznE347JaWt9IqqmW0fzVbP7MP5GBF9z5S9qkc3W22nAMA/UEYhSm4+uqr61aWVGyNEZ2dfI4J9wl8zdmI87lO1IqVoFkmsmkrHHYH4rTOJuRoKe1f+X6yj+TSNNGBinyf+X6zXzVb4QGAdhkzOgXGR1ACVMIoU5fPLS3JKTvls8u6ZutVgkGzu2VC6Vy2dM6FBJy8zkgLW/P10/+yz+VSDiQ1xxtnvywBNvtq9r1+2/+gn6gTwWgwZhTmWbM7biqngujOpcLflM8slwS48nmWz7KM92ya6y63cyWvP4Elr638ODM48r01ezRkvHG+zxxUaH6f5UBDWuy7z1MLAMw9YRQmkFCVU0g0u5EyuYTKBMx0b212td1rr73qgJn1zaCaINCL8Z69lPfXbMVNuM57mKhrMf0t+105SNJs5S7fbXeLT1pSs62ACgBzSxiFCWQ8WULG97///Z9q7Rtl+UwSyFIxb4awRx55ZPvtnIKlSCW+zHabADBMyqyuCTXGkg6H7Kf5TrN/NydIyveb/bh7AjMHIgBgdoRRmECCUy4ZVzYoLXdzLSE8le1mhfvaa6+tWzVTMb/llls6a6vq6KOPrj+rVNpHZQbaBJeEk+wfaQFmeHSPCc4+n+86+3bp7pvykXXp5pv7HbQCgOkzgdEUGKw/mlK5HNUgmlCZ1qF8Bs2ZZdNNMTMLJ6hn3N2wtXbORFrKmgEln1u67zbHKDJ88r2nK38O1qQclPHP2QdSXvL/RkKt/YBhMyx1oieeeKL66le/Wm3atMnBpHmQ38Z999232nvvvTtr6DelrPd6AiNhdAqE0dGQEFEqkKMiFeq0dqbr7fLly7eHztxOa08q2c317FhzltZ8funCy/ArgTRK2Yn8nmSfiJS1VHgdwGHQDUOdKP/vffCDH6w2b97cWcN82W233epQevzxx1evfe1rO2vpB8JoHxFGh19aNRJG0xKa68PYmpGKcPbhLEtX2lwv4TvvuTn2sVnBZmryeWY/yucojI6m7AMJpClrKVNlErTmb0z2jVHpzs7wGfQ60T333FOdcMIJ9fXFixdXK1eurJ797GfXt2nPgw8+WN17773VAw880FlTVb/zO79TrV27ttp11107a5hPwmgfEUaHWyqPZWKStAAOS8toM0w2Q2cqw6ksF6kkp/Uz245qt+S51uy6G/mMBdPRVsJo5PemGVIzAVj+nxmlXhkMrkGvE731rW+tvvjFL1arVq2qVq9e3VnLfMlEkTmAe+GFF9a3X/SiF1Vr1qypXvWqV9W3mT9thVETGDHyEsDStXJYgmgquXkfCT8JoZH3mLCZH5bm+sjtzBwqiM6dZhBN8E8IyXfSbHlmtKScpfKe35p0RyuyLoE0raXdPROAuZcWuTjmmGPqJfPrWc96Vv2bmPkoUkf5p3/6p+qiiy7q3MsoEEYZWc3KXoLYoAXRTCaU8Wip5KYlrkgrS8Jm3lNzfSq82T5hVfBsT2bazb6V76R52htGU/eBn1TCyqy85Sh05ABGbiekNssxMDuZsCie//zn10v6Q3popY6SMaT3339/9e1vf7tzD8NOGGUkJYimAtjdStiv8hrTwtZ8rWWynLyXZnepdHVJ8Mz2xnzOv3wHCRZpeS9dM6PZVZrRlXCa/SLleaKx6t37SfajbJuDUcDM7bKLKnA/KgflDI0bHUoiQyOVtqn8eCXQ5ZQMWeZIXL9LxTMta93d+BKkc0kgbbbqJvwIof0nE9aUFrEyPjnfn1DKRFLuS7feElKz3+Q3IOvKb1ihWy8wDITR0SOMMjTyw5UWhp39gCUQZLvSBa5fuqympSOvK8EyLZtFunnmNeb1Nl9rCajGew6ehIh8ZwkQze96Oh577LHqoYce6txiWKV8FwmlaWXPQYyU/1Lusx9lXX4jcpADYFAJo6NHGGVolFaCqYyvSitVWh7mI8TldZbxns2Wzswolx/f3N/8Ec5rzXbZ3ukghkNarvOd5mBCs+vudMYGXnDBBfUEHBs3buysYRSUg1DN0FkObpTrRUJqtssBj+Z6gH51wAEH1L9nmWjKePnRIIwyNEpla6KA+YUvfKF6wxve8LTw15a8rmYXugTNjFdNV7tyqocorRqpODbXx3yEZnovrVml5Sv7SbpeZt1U/gP+1V/91Xr5l3/5l/WS0ZV9KN298/vWPLiR35qsy+9J8zcl+5dwCvQrraOjRRhlaExWuUrF6x3veEc9g145j1Ub8ndLd7qEzyI/srnkvubrSeBMy6fxnqOpBITS5XJnsl9FQohgQaQbb/P3I78zaUXNvlL2l7j22mvr2wmuxiwD/UYYHS3CKEMj3VwjYyyLVNLPP//86oc//GG166671td7Ia2Zqdg1u9GmYpiAkZCZiZJKYMjtdLkt4z0hStfdBNHsG8VkQTP7UQkY89HiT//LPpX9Ka2izTBadFf0Sq8MM/UC86mE0fHx8XrJcBNGGRrNsFck9H3pS1+q9txzz7oV8tWvfnXnnpnJ3yjjPZtysuZU7BI+cylSuUtQyPbN1wWTSRBtHtQo4wOb+1VRAobWLaYjB87ye5XgWSp9kd+x/GalJ0dzn2oOMwDotRxIe85znlP98z//cz12lOEmjDK00jU3FauEwHe9613Va17zms49U5fw2WyZSiWtjPdsth7kxPVlvGfzXIG5LoQyUwmgCQ2lxbQ7kJYwWg6EwHRk/2n+PuXAR37fElCbITVjmXM790/WUt8rOfl9KqTAaBkbG6uX3T04GD7CKEOjVMYTANMSecMNN9S30wow3e6wCZWp/Key1mwhyO3S9a0ZOnPbeE/mWvax7H/Zt3Jp7nORIFFaUbWOMlv5fcvvZbMnR8JnuZ5KYXN9wml+K3vZcnrGGWdU/+2//Tf7N4yYckBMGB1+wihDoRytT0XpkUceqT784Q9X27Zt2x4cJ5MAm8pUWjWblZ08RypYeb5mS0Aqatk+lbDuYAC9kH0w+2f2vSJhocyOWlpHu7uOw1zI/pffvPw+Zj8s8vuYddkP0/OkyO9l8zdztvJbG/nbugvD6BBGR4cwylBohtGMDf3P//zPavHixXV32iLbpLX0r/7qr+rK1Ze//OV6VslUptINsjkJTLrdZpvSPRLmW/btyH6cfTOXBNFMjpUDI1mvqy69kv2vHPiI9DZJQEzLfHN9Ko65nctcHCApz5X9O92FgdHw4he/uFqyZEn17W9/u+6uz/ASRhkKJYz+x3/8R320/ud+7ueqN7/5zfWEHDmynm5ev/7rv1798R//cXXRRRfVATTXf+3Xfq2u6GSbZstTKvdpVS0BAPpF9skcZMn+mSPH2VezD0cOrkBbEkS7W+2L/CaX3+XIGPv87s6ku23+Rvb3HGwpLaXA8NM6OhqEUYbC5s2b6+W//Mu/1Msf/OAHdehMpT2Vn0yAkW67Ob1LKu8JqldddVV1wAEH1BWktH4a78mgyL6altG3vOUt27uTx5VXXlkvYb7kwEgqjvntTQ+TIgdKss8mTDZbTKfSmp/9u5yTOb/nMwm0wOARRkfDgs6yZ8bGxrZlOcg7Uj8VhvXr11c33XRTtWnTpmrr1q2dtbTlec97XrXvvvvWl/3222/Wp4phZkalHOQAyoIFPf+ZnjblgOlKy2jOGZhlWlLLpHIJpwmXCbFZv6ODgtku2zd7B9C+QQ8IAs7geOihh6pjjjmmWrRoUf1/Pu0qZeXJ3+6eVkSE0Snolx+uVatWVRs3buzcott8VNxToVqzZk219957d9bQa8pB/1EOmKl0wS3j9bMsE8OV1tOc3qE5G3oJr9muOc6f9gijtOn1r3999a1vfavuzZaDn7RHGO0j/fDDlZagSy65pNptt92qdevWVStWrKiPFPF06bKYcaLNSspUjrhP1QMPPFDde++91T333FN98Ytf3H4y5lTE3/jGN9bX6Z1RKgfp1piuial077XXXtuXmbAoLUO5Xbrntk05YK6lxbSEzow1zXjUMua0GVLTuppykd/6/LZnmAXtEkZp05/+6Z9Wn/70p6u3vvWt1e/93u911tIGYbSP9MMP14knnljddddd1fve977q4IMP7qxlMhmHlCPrzVCa7zEVnHJextn693//9+qCCy6oPvnJT9a3jzjiiOrP/uzP6uv0hnLQf5QDeiGtn/k/N7/lJXAmnJbJuorc172O3hJGadN1111X/c//+T+r17zmNdXFF1/cWUsbhNE+0g8/XJkJNmPj0mdei+j0ZNKM5tHztJBmYo25CqV/8zd/U7373e+uZ/D9whe+0FlLLygH/Us56K30CjBfwFPmY0iGcdI/IYzSpkcffbQ66qij/N8yD4TRPtIPP1x+PGcvoTRdeMvsjeeff3712te+tr4+W8cee2z1zW9+s/rLv/zL6ld+5Vc6a5lrykF/Uw56wzjpp/TThF6jPE560H+Hy+s/9dRT6yX975prrqkee+yxevzonnvu2VnbnoULF9YHpF75yldWz3zmMztrh18pK8JoH+iHH16V8Lnzuc99rh7z9oY3vKF6znOe01k7O3/xF39R/e3f/m31h3/4h/VpY+gN5aC/KQdzb5TGSU8kXXNT3jPsIuNEI2OlczquQw89tLUZdY2T/olB/x0urx+ma8mSJdVpp51WHX300Z01w62UFWG0D/TDD69KeH+78cYbq7e//e3Vr/7qr1bvf//7O2uZa8pBf1MO5t6ojpNOCC2T0ZXeLAmhmYwuQyzma/KuGPVx0oP+O1xef3OWZgZH+f7a9L3vfa+64YYb6tbZGJWZfctnLYz2gX744R30H/9h993vfrf6zd/8zbr7xpe//OW+PDfkMFAO+ptyMPdGbZz0v/3bv9UHMhJCy2y6KfeZpGi+Q2i3UR0nPei/w/4fYabSSyW9VQ455JDqve99b2ft8CplpddhdJfOEpiFdPdNd7EnnngihbazFkaLcjD3ymRFo9I19//+3/9bj+9PEE1FKNfTRTfdcvspiEbGSL/4xS+ufvCDH1R33HFHZy0wrI455ph6WbrpMzeEUZgjY2Nj9dLRVkaZcsBsPP/5z69bQEsIbWtM6EyV/d3BFxh++X2KzGrO3BFGYY6U8Sc5eTuMKuWA2TjggAOqc889t+9DaFH2dwdfYPjtsovY1As+VZgjzSPk6aYIo0g5YJQ0ewLk1DMATI8wCnMk56HKaRdSIdFli1GlHDBKjJMGmB1hFOaQLoqgHDBajJMGmDlhFOaQySxAOWC0OPgCMHPCKMyhck6mTPP/wx/+sL4Oo0Y5YJQYJw0wc8IozKHdd9+9OvDAA+vrjpIzqpQDRolx0gAzJ4zCHCutQsYPMcqUA0aJrroAMyOMwhwzXg6UA0aL/R1gZoRRmGM5Qr7rrrtWd999d7Vly5bOWhgtygGjxDhpgJkRRmGOpQKuiyKjTjlglBgnDTAzwij0gC5boBwwWhx8mV8f//jHqy9/+cudW8CgEEahB0xmAcoBo8XBl/n1nve8pzr99NOrN73pTdXjjz/eWQv0O2EUeiDdtXbbbbfq/vvvr7797W931sJoUQ4YJcZJz6+0jO6xxx7VN77xjep1r3tdvQT634LOsmfGxsa2ZTnI3Vb6oetNeQ0wVTn33bJly6rDDz+8WrVqVWftYFMOmK5BLwe6fg6WP/iDP6huu+22at26dfU+N4z6eZ9Mi+ipp566PYi+7W1vq1tKm5QpZmOU9p/yXsfHx3uaF7WMwpDaunVrddddd1WXXHLJ0IRRmC7lgDbpqju/0jKaFtISQNN1Nxegf2kZnYJ+OAriSB7TlW5iGzdurNauXVv96Ec/qlavXj3wlXHlgOka9HJgnx8st99+e/X7v//71d5771194hOf6KwdLoOyTyaUliC6zz77VJdddlkdVpUpZmOU9p/yXrWMAjOyaNGi6uCDD667i8VNN91UL2GUKAe0yTjp/pHWUeNIof9pGZ2CfjgK4kgeM5WWoYxdyti5z3/+8521g0k5YKYGtRyUfR6mqtfjpMs+mbGZccopp9TLuPzyyzvX+mf9v/3bv1XXXntt9Z3vfKez9in+H2EmRqkeUt5rr1tGhdEp6Icdb5R2fubesOw/ygGzMYj7T3nNMBMrVqyo1q9f37k1N7r3yWZ5at7Xb+uXLl1aPfzww/X1bdu2GdfLjJR9qrmfDavyXoXRPtAPO94o7fzMvWHZf5QDZmMQ9x/7PNPV63HSZZ8cpJbRm2++uXrggQfqLrvlHKTKFDMxSr/J5b0Ko32gH3Y8FRJmY1j2H+WA2RjE/cc+z0zdeuut1R/90R9VBxxwQPXRj360s3b2BmmfzBjRs846q24RTRA999xz69O9hDLFTIzSb3J5ryYwAgBgWvbff/96uWnTpno5atIamtbbBNHMppvJjA477LDOvUC/EEYBAIbM4sWL62XOtTtK0g03p3RJC2iuZ1bdnNYlY0aB/iOMAgAw8BI+0xW3nNIlgTSXXAf6kzAKAMBAy/jQtIKme24ZH5rbQH8TRgEAGGjGh8JgEkYBABh4vRwfmplFcznqqKM6a4bHNddcU7+3LIvcPuecczq3oHeEUQAABlpaQ3s1PjQBdGxsrD6dx3XXXddZ245bbrmlDoZZzoUEzGEM1AwuYRQAgIHWy9lyH3300eqlL31p51a7Nm/e3Lk2NyZ6vuOOO64O2llC24RRAACYwH333de5BvSCMAoAAF3SpfX444+vr1955ZXbx1EmoOb6pZdeWnd5LdeLMgazeekOtSeffHL92NINt1ya4zZz//nnn19fP/PMM3/q/qL8ve6uvHlNWZ+/Xf7O+Ph43dKb67lEuW+i524qj8nFeFLmijAKAABdzjvvvOrqq6+ur5900kl1V9asKxJQTzzxxHr96aefXq9LSEuAvOiii+r1uRx55JF1qO0OiwmFV1111dO2y2PLdhmfevbZZ9fXy/PNtCvtoYceWj8+Y1/33HPP7X9zqhJA8/rK49Jtufv9wEwIowAAME0Jds1wmHB2/fXX1wEy4a9IgE0ATPDsdsUVV3SuVdWqVavq5Z133lkv+0UJnc1xs3nfzfcIMyWMAgDANHVPalRC5Mte9rJ62XTggQfWXWSbElCbli9fXi/netKi2dprr73qZekyDHNJGAUAgDlSQmXTkiVLOtcGT95PuglHGTOqiy5zRRgFAIA5MtEMvL1s7Wwj6JYxp2UMbSZU2tmERzAVwigAAMxS6bb79a9/vV423X777fUY017qDry9GHuaVtIy8VG/jW1lMAmjAAAwS2k97J4RNzLDbmbOXbNmTWfN1JVWz2bQLKdyKS2T+bsZf/rRj360vh25r3uMauT58lqmI++leeqa0vLbPWYWZkIYBQCAOZCZc3MamHJe0FzSKprWxInGku5MM+CWADpRQL344oufdv7QtFrmdXQrp6Yp201FXkP+VnlMTlOTGYNnepoZaFrQWfbM2NjYtixLk/4gKoV1Pt9DP7wGBtew7D/KAbMxiPuPfZ7Z6MX+M+j7pDLFbIzS/lPe6/j4eE/zopZRAAAAWieMAgAA0DphFAAAgNYJowAAALROGAUAAKB1wig9l/NTZUaucj4sGDY5h1yZdQ4AgKkRRulLOaFyKvdHHXVUZ81Py/3dl+7tBWEGRdmHJ5N9u2zTvDSVctM8OTkAQL8SRulLN9xwQ73MCZwTKCeTE0HnXE/lEt0VdOh3zYMlOzpwMjY29rT9PbezvyeEAgAMGmGUvvTZz362Dppx44031supuPjii+ulliEGSfbxBMs999xzWvv7FVdcUS/Xr19fLwEABokwOsRKF9VyOfnkk39qbFtaYXK7LHMpLZHdj8+lKYEv69Iq0+xCuKOutXkNZbtcJpK/mxbR3/iN36gD6fXXX9+5Z+eWL1/euQY/GctZuq+Wy0QHK7q3yWWiVsqpPFfR3bV2Inm+8fHxen8/4ogj6utZN1UJsDAXyv8DO+qNMlXl/4e5eC4AhpcwOqRSATjzzDOrk046aXuXviVLlkwa7M4///zq6quvrrc79NBD63VXXXXV9sfmkkpvwmS3448/vm6RLNslSE4USPM3TjjhhHqb/K2Y6PnSMpS/ldeRCnrsqOtiU6nE571CccYZZ2zfP1MmrrzyyqftU7me/bhZXs4+++x6n22GzZSr7u02b948YblKRXzp0qXbt8uBlYkCaemSftxxx1UrV66sr5d1U5HyZn9nPuV3fKLf8jaVAz+THcjpPhBaLt3b53nm+70AjBJhdEitW7eu7vZ3+umnd9ZU1XnnnTdpK0oq192tiqULYDFZq00q7c3HXnTRRXUFuTtA5m+UoJvtUznP83VLxf7EE0+sr2f7vI+pdl1MUMh7TMUeitJ9O0qZuPPOO+tlJHRmf2yWl+xDWZfgWky1XJUA2yxDq1atqpfdLanpkp6yEaVcZN1UlIM+zdcDbXv44Yc7134i+2QOwpTf/F4qvWliRwdyUk7LwaFygCj/Z2i9BZg/wugQSljMf8wvfelLO2t+4sADD+xce7qJtm1Kd8dmpbzpZS97WefaU0rlIy1GTd2tN+V2M9yWinozTKZ1dLKuiwmuzaPcqVxcd911nXvhKd0HWlIpLftnqYhOVAbKumwznXKVMJnQ2pTX0Py7kQM2ec7SIhrZ37NuogpyykFzfy8trzDKSm+alLmpHsiJciApvYAAmB/C6BCbTde9VLybld5UwEvrTbfuiv5slIpE82+n1SomOuKd8Nk80p3KBczEROVlqusm0h0cc0nIbIbR0uKf1pmyTbrXx0S9AVLZbu7v3b0XoIyTzoGOsk81lXW5TDScolv3/wW5lAOD5W9kvy77e3nOcl/3QZUylrR56ZZ1eR/d2050QDJyUDI9d3Z0IGcyOaADwPwRRpnQBRdc8LQuTdPp9jpZhWFnUoFIRSLdfJsV7lwShCdrmYW50N2SHxOtm6ruAyXlUgJkykkq8Onm3r1N1qWCPdOyBB/96Ee370+RfSmBrrlfJojtLJDm/4KyfS45IJIx2JH/F7KutErm+o56pmQsZn7Hy/wE5fkmCpplHHbZLn8jB226leEg6V1Q/p+a6rCOSBfj2Ry4BWB2hNEhVFoqJ/oPufwHvzP5D7r7iPFkFfPuo9Bf//rX62Wz6+FUlK5WE40xKl0jS8UD5krZ35pjSIuyLtuUbrZTKVfptnv77bd3bk2sOXFRt9L1fToTGUHT2rVrO9eektP/ZP9t9h7JhHI5ALij39Xu1veZtD5G/kYOvuRgY7M3TXn+7tMTJaQ2x0KXeQS6/27KYwJ2ec4cuJzq/3MJx3kvZTw3AO0TRodU/kPOf/zNSsZ0ZghMEM3jy9HqPM9k/8GXboWR7ctkMNPtvpvnn2xMa8LAZEEAZqu0RDYnFyr7fO4ryiReOytXqdymktt9X1qhSpmaaFxpkbKT+6Yz/g2aug/qTfT7WraZag+AlI8ybGK6mgd2umVf7z54091aWW43X2uCacpjmXU9ykHQZhktUiab3X5z0DWtrtP9vwqAuSOMDqkcUU4gTcWh/Meb/7ATEhPqdiZHq7NdGcuWEDjZmNFU1svfyPb5G9Mdu1lCwESTwxSpSKXiMd0j8rAzaZ1Mi026EJZ9OWUn3QmbLZc7KldNqdymkpv9tWyXS2b1zX2pKKdivKP9Pfdlm4kq1TATCaTN/TGX2FEY7d62eXBmuib7v2em3WTLwckcEC2vsXTlnejAZf5+6fabi8nuAEbA2NjYtlwGWT+8h7l6Db//+7+/7bd+67c6t2bnfe97X/2avvGNb3TW0K/6YR+eC8PyPpgfg7j/TPc1v+Md75hw+6zLb/aOfOITn6i3u/nmm+vbEz1X9zaR/1Pyf0vTVJ6r6P5/Kdtl+6Y8T9bneYvcnug9lW2br3Gq//dN9F4GWT6HXOZSL56zTYP++plfo7T/lPfaiXQ9o2V0xKSlJl0NARgdT1YoJhwXvSNpMe1uzZxql95upRfARD1b8v/SZEM0JlN6DEw0N0HpCmxYB0D/E0aHVJkWv8kJ8gFGUyYrSujL/w1NpfvtRNJ9Nl3FS4DMcqJZzTPHQMZf7ki6uycQp0ttc+bcMq56ukM7EjQTlCcb75mu8+mWDEB/E0aHVP5jzxHsMo4ml1QYMk4GgNGS1sKMge4eN7qj/xPy/0gJkNl23bp1E44ZXbNmzfbJgXZ0qpjMRZCQ2Dyvbkz3/6UycdGOWlNLS2z3QVkA+suCzrJnSl/jQQ5BM/0Pcy71w2tgcA3L/qMcMBuDuP/Y55mNXuw/g75PKlPMxijtP+W9jo+P9zQvahkFAGCk/PjHP+5cg6mxz/SGMAoAwEhYtmxZvXzooYfqJUxV2WfKPsTcEEYBABgJL3jBC+rlpz71qXoJU/XpT3+6XpZ9iLlhzOgU9EP/cGMcmI1h2X+UA2ZjEPcf+zyz0Yv9Z9D3yXvuuaeeXToWL15c/eZv/ma1aNGi+jZMZMuWLdX/+T//p3rsscfq2x/72Meq/fffv74+zEpZ7/WYUWF0Cvrhh1eFhNkYlv1HOWA2BnH/sc8zG73Yf4Zhn7z22murD37wgzM+by6jKae7Ou2006qjjz66s2a4lbIujPaBfvjhVSFhNoZl/1EOmI1B3H/s88xGL/afYdknn3jiieq2226rvvWtb1Vbt27trIWftscee9TjRF/xildUz3zmMztrh18p68JoH+iHH14VEmZjWPYf5YDZGMT9xz7PbPRi/7FPwmgoZd2pXQAAABg6wigAAACtE0YBAABonTAKAABA64RRAAAAWieMAgAA0DphFAAAgNYJowAAALROGAUAAKB1wigAAACtE0YBAABonTAKAABA64RRAAAAWieMDoiFCxfWyy1bttRLmKqyz5R9aJApB8zUMJUDABgWwuiAWLZsWb3cuHFjvYSpKvtM2YcGmXLATA1TOQCAYSGMDojDDz+8Xq5du7a69dZbq8cee6y+DZPJPpJ9JftMlH1okCkHTNcwlgMAGBYLOsueGRsb25blhg0b6tuD6KCDDqqX8/0eVq1apUWIGVmxYkW1fv36zq3BphwwU4NYDvrl/x8GUy/2H/skjIZS1sfHx3uaF7WMDpBUolavXl0dcMABxj2xU9lHsq9knxmWIBrKAdMx6OWg7OPGSTNdpeeI30mgn2kZnQJHAQGYDyeeeGJ11113Ve973/uqgw8+uLMWdi7d0//oj/6oPhjz0Y9+tLN29tSJYDRoGQWAEWecNNNVxkmfffbZ9W3jpIF+pmV0ChwFBGC+lNZRmK5ejJNWJ4LRoGUUAKi7WBonzVQN+jhpYLRoGZ0CRwEBANSJYFRoGQUAAGBoCaMAAAC0ThgFAACgdcIoAAAArRNGAQAAaJ0wCgAAQOuEUQAAAFonjAIAANA6YRQAAIDWCaMAAAC0ThgFAACgdcIoAAAArRNGAQAAaJ0wCgAAQOuEUQAAAFonjAIAANA6YRQAAIDWCaNTsHDhwnq5ZcuWegkAMGoee+yxelnqRQCzJYxOwbJly+rlxo0b6yUAwKi5++6762WpFwHMljA6BYcffni9XLt2bXXrrbduPzIIADDsUu9J/efss8+ub5d6EcBsLegse2ZsbGxblhs2bKhvD6pVq1ZpGQUARtqKFSuq9evXd24Bw+qggw6ql+Pj4z3Ni1pGpyg/vKtXr64OOOAAYyUAgJGRek/qP6kHCaLAXNIyCjAALr/88uqyyy6rTj311OqUU07prAUAmHtaRgEAABhaWkYBAADYTssoAAAAQ0sYBQAAoHXCKMAAyARG6TKTJQDAMBBGAQAAaJ0wCgAAQOvMpgsAAMB2ZtMFAABgaAmjAAAAtE4YBegDjz/+ePW6172u7hbzjW98o7P2J3Y0m262P+yww6orr7yyswYAoP8JowB9YI899tg+PuPUU0+tw+lUZLt3vetd9XL58uWdtQAA/U8YBegT5557bh1IEyzf9ra3ddZOLtvlMWkZ3WeffaqXv/zlnXsAAPqfMArQR97znvdUS5curWcgT9AsTjnllHpdlsXVV19d3XzzzXWr6oUXXlg985nP7NwDAND/hFGAPlKCZXzmM5+pLxPJ+ssuu6zePqE1ARYAYJAIowB9Jl1u00IapRtuU26X+9NSmsmLAAAGjTAK0IcSMDO7bmRCo0svvbQeT5plmbDoTW96U30BABhEwihAn2pOaHTDDTfU6zJGtExY1Bw/CgAwaIRRgD5WJjR65JFH6tsPPPDA9nGlWQIADCphFKCPNSc0ChMWAQDDQhgF6HPNCY1MWAQADAthFGAAJIAmkJqwCAAYFsIowIDQIgoADBNhFAAAgNYJowAAALROGAUAAKB1CzrLnhkbG9uW5YYNG+rbwM7dc8891WWXXVY9+OCD1aZNmzprYXjsu+++9WW//farlwcccEDnHgBgvh100EH1cnx8vKd5URiFPnPttddW73znOzu3YDS88Y1vrM4666xqwYKe/7cEAOyEMAoj6IknnqiOOeaYavPmzdXv/d7vVW94wxuq5z//+dUuu+hRz/D4j//4j+ree++tL+kF8OlPf7pe/0u/9EvVmjVrqle84hX1bQBgfrQVRtVwoY/cdtttdRBdvHhx9da3vrV6wQteIIgydH7mZ36m7pb7O7/zO9Wf/MmfVB//+Merl73sZdU//uM/Vm95y1uq//2//3dnSwBgmKnlQh/51re+VS9XrlxZL2EU7LPPPtX/+l//qzr55JPr2x/84Aer//f//l99HQAYXsIo9JHHH3+8Xi5atKhewihJq+irXvWq6jvf+U71oQ99qLMWABhWwigAfeO0006rl3/1V39Vbdy4sb4OAAwnYRSAvpGxpP/9v//3+voHPvCBegkADCdhFIC+8gd/8AfVL/zCL1R///d/bzIjABhiwij0kW3b6jMhwUjbfffdt3fXNZkRAAwvYRRoxaWXXlqfs+qcc86pb2eZ21kP3V7/+tebzAgAhpwwCkzqlltueVqAhDaZzAgAhpswCkzqzjvv7FyD9pnMCACGmzAKA660XpbLySef3LnnJ11hJ7rvmmuu2b6uXM+l2Y32yiuvrK9ff/319X35W83utUcddVR9vchzlefJZbotqt2v97777qvXl/eYv1e6++Y1M/xMZgQAw0sYhQGWQHbmmWd2bj1dgmFCZNP4+PjTAmk8/PDD1fnnn9+59VTwTPjbmc9+9rPVo48+2rlV1UExz9+U55pqIM123a/3+OOP3x5IixKQGQ0mMwKA4SWMwgD76Ec/Wi9POumkasOGDfXlpS99aR3gSjC86KKLtt8XWd8MmwmU5f4999yzXrd58+bqvPPOq583jjzyyPr+Qw89tL5dlMfl+Uowvfrqq+t1WUYCZneg7Jb7SxAtz5m/GV//+tfrZeRvlPdz3HHHddYy7ExmBADDSRiFAVYC4MqVK+tlnH766dUjjzxSX0+4bAbIsbGxzrWfaK5bunRp59rOHXHEEZ1rT4XXyHMtX768vp5lCbc7U15vlC66JZyW547u98PoMJkRAAwfYRQGWAl7N9xwQ72MjKnca6+96usJq81WydJaWu6fK0uWLKmXzW66+bslLJeAOpnm6ykto+WScA0mMwKA4SOMwgArrZMZR1laFDMDbsJfafHMuMtyXzRbL3emhMy0Uubxk40lTWtlCcblb+XvRuluuyPN11sen0vGoUJhMiMAGC7CKPShbdu2da7tWFoNzz777M6tp2TMaFxxxRU/FQRzO+unKuMyp9rV9rrrrntal9/ImNOMPZ2KvK7ux0+n2zDDz2RGADBcFnSWPfNk5bKuVae7HbBjl19+eXXZZZdVp556anXKKad01gJNCaRpHU233clmkwYAZi491GJ8fLyneVHLKAADxWRGADAchFEABorJjABgOAijAAwckxkBwOATRgEYOM3JjD70oQ+ZzAgABpAJjKCPZOKir33ta51bAJNbtmxZ9YIXvKD+3dhvv/06awFg9kxgBABMatOmTdUXv/jF6oQTTqiuvfbazloAGBxaRqGPOLULMBU//vGPq4ceeqj69Kc/Xa1fv75asmRJff2Zz3xmZwsAmDktowDAhHbZZZe6i+7q1aurxYsXV5s3b66++tWvdu4FgMEgjALAAFu5cmW9TLddABgkwigADLBnP/vZ9fLxxx+vlwAwKIRRAAAAWieMAgAA0DphFAAAgNYJowAAALROGAUAAKB1wigAAACtE0YBAABonTAKAABA64RRAAAAWieMAgAA0DphFAAAgNYJowAAALROGAUAAKB1wigAAACtE0YBAABonTAKAABA64RRAAAAWieMAgAA0DphFAAAgNYJowAAALROGAUAAKB1wigAAACtE0YBAABonTAKAABA64RRAAAAWieMAgAA0DphFAAAgNYJowAAALROGAUAAKB1wigAAACtE0YBAABonTAKAABA64RRAAAAWieMAgAA0DphFAAAgNYJowAAALROGAUAAKB1wigAAACtE0YBAABonTAKAABA64RRAAAAWieMAgAA0DphFAAAgNYJowAAALROGAUAAKB1wigAAACtE0YBAABonTAKAABA64RRAAAAWieMAgAA0DphFAAAgNYJowAAALROGAUAAKB1wigAAACtE0YBAABonTAKAABA64RRAAAAWieMAgAA0DphFAAAgNYJowAAALROGAUAAKB1wigAAACtE0YBAABonTAKAABA64RRAAAAWieMAgAA0DphFAAAgNYJowAAALROGAUAAKB1wigAAACtE0YBAABonTAKAABA64RRAAAAWieMAgAA0DphFAAAgNYJowAAALROGAUAAKB1wigAAACtE0YBAABonTAKAABA64RRAAAAWieMAgAA0DphFAAAgNYJowAAALROGAUAAKB1wigAAACtE0YBAABonTAKAABA64RRAAAAWieMAgAA0DphFAAAgNYJowAAALROGAUAAKB1wigAAACtE0YBAABonTAKAABA64RRAAAAWieMAgAA0DphFAAAgNYJowAAALROGAUAAKB1wigAAACtE0YBAABonTAKAABA64RRAAAAWieMAgAA0DphFAAAgNYJowAAALROGAUAAKB1wigAAACtE0YBAABonTAKAABA64RRAAAAWieMAgAA0DphFAAAgNYJowAAALROGAUAAKB1wigAAACtE0YBAABonTAKAABA64RRAAAAWieMQh/ZY4896uX3vve9egmwM+X3YuHChfUSAAaFMAp9ZNmyZfXyhhtuqJcAO1N+L573vOfVSwAYFMIo9JFXvOIV1ZIlS6rHHnusuuSSS6oHH3yw+vGPf9y5F+Ap+V3I70N+J/J7kd+NV77ylZ17AWAwLOgse2ZsbGxblhs2bKhvAzt27bXXVu985zs7twB27l3veld19NFHd24BwOwcdNBB9XJ8fLyneVHLKPSZVCg/9rGPVYcccsj2brsA3fL7kN+Jq666ShAFYCBpGQUAAGA7LaMAAAAMLWEUAACA1gmjAAAAtE4YBQAAoHXCKAAAAK0TRgEAAGidMAoAAEDrhFEAAABaJ4wCAADQOmEUAACA1gmjAAAAtE4YBQAAoHXCKAAAAK0TRgEAAGidMAoAAEDrhFEAAABaJ4wCAADQOmEUAACA1gmjAAAAtE4YBQAAoHXCKAAAAK0TRgEAAGidMAoAAEDrhFEAAABaJ4wCAADQOmEUAACA1gmjAAAAtE4YBQAAoHXCKAAAAK0TRgEAAGidMAoAAEDrhFEAAABaJ4wCAADQOmEUAACA1gmjAAAAtE4YBQAAoHXCKAAAAK0TRgEAAGidMAoAAEDrhFEAAABaJ4wCAADQOmEUAACA1gmjAAAAtE4YBQAAoHXCKAAAAK0TRgEAAGidMAoAAEDrhFEAAABaJ4wCAADQOmEUAACA1gmjAAAAtE4YBQAAoHXCKAAAAK0TRgEAAGidMAoAAEDrhFEAAABaJ4wCAADQOmEUAACA1gmjAAAAtE4YBQAAoHXCKAAAAK0TRgEAAGidMAoAAEDrhFEAAABa1/Mwum3btn/NcsuWLfVtAAAA+tNjjz1WL0uO66U2Wkb/v/yzcePG+gYAAAD96e677+5ceyrH9VLPw+iCBQs+meXatWurW2+9dXvSBgAAoD8kpyWvnX322fXtkuN6aUFn2VMHHnjg3z/5Zl7ZuQkAAECf2rZt22233377qzo3e2bXzrKnHn300Q/vtddeP3zyTS188uZ/eTKY7v7UPQAAAMy3zhjRO5/Mau97Moi++am1AAAAAAAAAAAAAAAAAAAAAAAAAAAAAAAAAAAAAAAAAAAAAAAAAAAAAAAAAAAAAAAAAAAAAAAAAAAAAAAAAAAAAAAAAAAAAAAAAAAAAAAAAAAAAAAAAAAw7Krq/wcVoZQIbMqZTQAAAABJRU5ErkJggg==;" vertex="1" parent="1">
          <mxGeometry y="-10" width="931" height="880" as="geometry" />
        </mxCell>
        <mxCell id="q2s0pi1lTseh03P_kRHl-3" value="QuestionUI" style="shape=folder;fontStyle=1;spacingTop=10;tabWidth=40;tabHeight=14;tabPosition=left;html=1;" vertex="1" parent="1">
          <mxGeometry x="80" y="160" width="80" height="70" as="geometry" />
        </mxCell>
        <mxCell id="q2s0pi1lTseh03P_kRHl-4" value="QuestionApi" style="shape=folder;fontStyle=1;spacingTop=10;tabWidth=40;tabHeight=14;tabPosition=left;html=1;" vertex="1" parent="1">
          <mxGeometry x="-110" y="440" width="110" height="100" as="geometry" />
        </mxCell>
        <mxCell id="q2s0pi1lTseh03P_kRHl-5" value="QuestionStore" style="shape=folder;fontStyle=1;spacingTop=10;tabWidth=40;tabHeight=14;tabPosition=left;html=1;" vertex="1" parent="1">
          <mxGeometry x="-110" y="310" width="110" height="90" as="geometry" />
        </mxCell>
        <mxCell id="q2s0pi1lTseh03P_kRHl-6" value="Use" style="endArrow=open;endSize=12;dashed=1;html=1;" edge="1" parent="1">
          <mxGeometry width="160" relative="1" as="geometry">
            <mxPoint x="100" y="230" as="sourcePoint" />
            <mxPoint x="-50" y="330" as="targetPoint" />
          </mxGeometry>
        </mxCell>
        <mxCell id="q2s0pi1lTseh03P_kRHl-7" value="Use" style="endArrow=open;endSize=12;dashed=1;html=1;exitX=0.5;exitY=1;exitDx=0;exitDy=0;exitPerimeter=0;" edge="1" parent="1" source="q2s0pi1lTseh03P_kRHl-5">
          <mxGeometry width="160" relative="1" as="geometry">
            <mxPoint x="-130" y="580" as="sourcePoint" />
            <mxPoint x="-30" y="460" as="targetPoint" />
          </mxGeometry>
        </mxCell>
        <mxCell id="q2s0pi1lTseh03P_kRHl-8" value="Bert/Bayes Controller" style="shape=folder;fontStyle=1;spacingTop=10;tabWidth=40;tabHeight=14;tabPosition=left;html=1;" vertex="1" parent="1">
          <mxGeometry x="-140" y="650" width="160" height="110" as="geometry" />
        </mxCell>
      </root>
    </mxGraphModel>
  </diagram>
</mxfile>
